<svg width="24" height="24" viewBox="0 0 24 24" fill="none" xmlns="http://www.w3.org/2000/svg">
<g clip-path="url(#clip0_576_229)">
<path d="M11.28 17.6C11.2355 17.6962 11.1666 17.7789 11.08 17.84C11.0098 17.8901 10.9262 17.918 10.84 17.92C10.76 17.92 10.707 17.893 10.68 17.84C10.6491 17.7639 10.6355 17.682 10.64 17.6V14.64H9.92V17.92C9.91216 18.101 9.95363 18.2807 10.04 18.44C10.12 18.573 10.24 18.64 10.4 18.64C10.56 18.64 10.707 18.587 10.84 18.48C10.973 18.373 11.12 18.24 11.28 18.08V18.56H12V14.64H11.28V17.6ZM6.96 14V13.2H9.6V14H8.72V18.56H7.84V14H6.96ZM11.92 9.28C11.813 9.28 11.72 9.24 11.64 9.16C11.602 9.12398 11.5717 9.08056 11.551 9.03241C11.5304 8.98426 11.5198 8.93239 11.52 8.88V6.48C11.52 6.427 11.547 6.373 11.6 6.32C11.653 6.267 11.747 6.24 11.88 6.24C12.013 6.24 12.12 6.267 12.2 6.32C12.2392 6.34607 12.2709 6.38194 12.2919 6.42404C12.313 6.46614 12.3227 6.51301 12.32 6.56V8.88C12.32 8.987 12.28 9.08 12.2 9.16C12.164 9.19804 12.1206 9.22832 12.0724 9.24895C12.0243 9.26959 11.9724 9.28016 11.92 9.28ZM13.92 17.6C13.92 16.96 13.947 16.293 14 15.6C14 15.493 13.96 15.4 13.88 15.32C13.8 15.24 13.72 15.2 13.64 15.2H13.52L13.28 15.36V17.76L13.52 17.92L13.68 18C13.787 18 13.853 17.973 13.88 17.92C13.907 17.867 13.92 17.76 13.92 17.6ZM14 14.56C14.213 14.56 14.387 14.64 14.52 14.8C14.653 14.96 14.72 15.2 14.72 15.52V17.76C14.72 18.027 14.667 18.24 14.56 18.4C14.516 18.4744 14.4502 18.5335 14.3715 18.5692C14.2928 18.605 14.205 18.6157 14.12 18.6C13.9558 18.5791 13.7947 18.5388 13.64 18.48C13.5198 18.4381 13.4198 18.3524 13.36 18.24V18.56H12.56V13.2H13.36V14.96C13.467 14.853 13.573 14.76 13.68 14.68C13.7706 14.6059 13.883 14.5637 14 14.56ZM17.92 19.68C18.187 19.467 18.347 18.773 18.4 17.6C18.453 17.013 18.507 16.453 18.56 15.92C18.56 15.44 18.507 14.907 18.4 14.32C18.293 13.147 18.12 12.427 17.88 12.16C17.64 11.893 16.613 11.707 14.8 11.6L12.16 11.52L9.44 11.6C7.627 11.707 6.6 11.893 6.36 12.16C6.12 12.427 5.947 13.147 5.84 14.32C5.78675 14.8517 5.76005 15.3857 5.76 15.92C5.76 16.453 5.787 17.013 5.84 17.6C5.947 18.773 6.12 19.48 6.36 19.72C6.6 19.96 7.627 20.16 9.44 20.32L12.16 20.4L14.8 20.32C16.613 20.16 17.653 19.973 17.92 19.76V19.68ZM8.4 4H7.44L8.56 7.6V9.84H9.52V7.44L10.64 4H9.68L9.12 6.32H9.04L8.4 4ZM10.72 6.56V8.8C10.72 9.173 10.827 9.467 11.04 9.68C11.253 9.893 11.547 10 11.92 10C12.293 10 12.587 9.893 12.8 9.68C13.013 9.467 13.12 9.173 13.12 8.8V6.56C13.12 6.24 13.013 5.973 12.8 5.76C12.587 5.547 12.293 5.44 11.92 5.44C11.547 5.44 11.253 5.547 11.04 5.76C10.827 5.973 10.72 6.24 10.72 6.56ZM13.84 5.6V9.2C13.8322 9.381 13.8736 9.56074 13.96 9.72C14.04 9.853 14.173 9.92 14.36 9.92C14.547 9.92 14.72 9.88 14.88 9.8C15.04 9.72 15.2 9.6 15.36 9.44V9.92H16.24V5.6H15.36V8.8C15.3089 8.90446 15.2245 8.9889 15.12 9.04C15.034 9.08766 14.9382 9.11503 14.84 9.12C14.76 9.12 14.707 9.107 14.68 9.08C14.653 9.053 14.64 8.987 14.64 8.88V5.52H13.84V5.6ZM12 0C14.187 0 16.2 0.533 18.04 1.6C19.8543 2.64095 21.359 4.14572 22.4 5.96C23.467 7.8 24 9.813 24 12C24 14.187 23.467 16.2 22.4 18.04C21.359 19.8543 19.8543 21.359 18.04 22.4C16.2 23.467 14.187 24 12 24C9.813 24 7.8 23.467 5.96 22.4C4.14572 21.359 2.64095 19.8543 1.6 18.04C0.533 16.2 0 14.187 0 12C0 9.813 0.533 7.8 1.6 5.96C2.64095 4.14572 4.14572 2.64095 5.96 1.6C7.8 0.533 9.813 0 12 0ZM16.56 16.08L16.48 15.68C16.48 15.52 16.453 15.4 16.4 15.32C16.3739 15.2808 16.3381 15.2491 16.296 15.2281C16.2539 15.207 16.207 15.1973 16.16 15.2C16.113 15.1973 16.0661 15.207 16.024 15.2281C15.9819 15.2491 15.9461 15.2808 15.92 15.32C15.867 15.4 15.84 15.52 15.84 15.68V16.08H16.56ZM16.24 14.56C16.56 14.56 16.813 14.653 17 14.84C17.187 15.027 17.28 15.307 17.28 15.68V16.64H15.84V17.44C15.84 17.6 15.867 17.72 15.92 17.8C15.973 17.88 16.067 17.92 16.2 17.92C16.333 17.92 16.427 17.88 16.48 17.8C16.533 17.72 16.56 17.573 16.56 17.36V17.2H17.28V17.44C17.28 17.813 17.187 18.107 17 18.32C16.813 18.533 16.547 18.64 16.2 18.64C15.853 18.64 15.587 18.533 15.4 18.32C15.213 18.107 15.12 17.813 15.12 17.44V15.68C15.12 15.36 15.227 15.093 15.44 14.88C15.653 14.667 15.92 14.56 16.24 14.56Z" fill="white"/>
</g>
<defs>
<clipPath id="clip0_576_229">
<rect width="24" height="24" fill="white"/>
</clipPath>
</defs>
</svg>
