<svg width="15" height="12" viewBox="0 0 15 12" fill="none" xmlns="http://www.w3.org/2000/svg">
<g clip-path="url(#clip0_576_238)">
<path fill-rule="evenodd" clip-rule="evenodd" d="M3.4502 4.5C3.4502 3.50544 3.84528 2.55161 4.54854 1.84835C5.25181 1.14509 6.20563 0.75 7.2002 0.75C8.19476 0.75 9.14858 1.14509 9.85185 1.84835C10.5551 2.55161 10.9502 3.50544 10.9502 4.5C10.9502 5.1025 10.7577 5.788 10.4832 6.464C10.2057 7.146 9.8322 7.8475 9.4432 8.4915C9.08821 9.07844 8.7032 9.6467 8.2897 10.194C7.9457 10.6465 7.6317 11.01 7.4342 11.1675C7.36775 11.2206 7.28523 11.2495 7.2002 11.2495C7.11516 11.2495 7.03265 11.2206 6.9662 11.1675C6.7687 11.01 6.4547 10.6465 6.1107 10.194C5.69736 9.64669 5.31252 9.07843 4.9577 8.4915C4.5677 7.8475 4.1947 7.146 3.9177 6.4635C3.6427 5.788 3.4502 5.1025 3.4502 4.5ZM7.2002 6.1245C7.63117 6.1245 8.0445 5.95329 8.34924 5.64855C8.65399 5.3438 8.8252 4.93048 8.8252 4.4995C8.8252 4.06852 8.65399 3.6552 8.34924 3.35045C8.0445 3.0457 7.63117 2.8745 7.2002 2.8745C6.76922 2.8745 6.35589 3.0457 6.05115 3.35045C5.7464 3.6552 5.5752 4.06852 5.5752 4.4995C5.5752 4.93048 5.7464 5.3438 6.05115 5.64855C6.35589 5.95329 6.76922 6.1245 7.2002 6.1245Z" fill="white"/>
</g>
<defs>
<clipPath id="clip0_576_238">
<rect width="14.4" height="12" fill="white"/>
</clipPath>
</defs>
</svg>
