<svg width="36" height="36" viewBox="0 0 36 36" fill="none" xmlns="http://www.w3.org/2000/svg">
<rect width="36" height="36" rx="4" fill="white"/>
<path d="M0 4C0 1.79086 1.79086 0 4 0H32C34.2091 0 36 1.79086 36 4V32C36 34.2091 34.2091 36 32 36H4C1.79086 36 0 34.2091 0 32V4Z" fill="#BF0413"/>
<rect x="7" y="7" width="22" height="22" rx="4" fill="#BF0413"/>
<path d="M26.7085 20.75C26.7065 20.1998 26.5394 19.6628 26.2289 19.2085C25.9184 18.7542 25.4788 18.4035 24.9668 18.2017L26.681 11.785C26.7168 11.6484 26.7205 11.5053 26.6919 11.367C26.6633 11.2286 26.6031 11.0988 26.516 10.9875C26.427 10.8833 26.3157 10.8004 26.1904 10.7449C26.065 10.6894 25.9288 10.6626 25.7918 10.6667H13.2335L12.931 9.51172C12.8784 9.31638 12.7627 9.14394 12.6018 9.02124C12.441 8.89854 12.2441 8.8325 12.0418 8.83338H10.2085V10.6667H11.336L13.6093 19.155C13.663 19.355 13.7829 19.5309 13.9493 19.6541C14.1158 19.7773 14.319 19.8405 14.526 19.8334H23.9585C24.2016 19.8334 24.4348 19.93 24.6067 20.1019C24.7786 20.2738 24.8752 20.5069 24.8752 20.75C24.8752 20.9932 24.7786 21.2263 24.6067 21.3982C24.4348 21.5701 24.2016 21.6667 23.9585 21.6667H12.0418C11.7987 21.6667 11.5656 21.7633 11.3936 21.9352C11.2217 22.1071 11.1252 22.3403 11.1252 22.5834C11.1252 22.8265 11.2217 23.0597 11.3936 23.2316C11.5656 23.4035 11.7987 23.5 12.0418 23.5H13.1235C12.9727 23.9154 12.9243 24.361 12.9823 24.7991C13.0402 25.2371 13.2029 25.6548 13.4565 26.0166C13.7102 26.3785 14.0472 26.6739 14.4392 26.8778C14.8312 27.0818 15.2666 27.1883 15.7085 27.1883C16.1504 27.1883 16.5858 27.0818 16.9778 26.8778C17.3698 26.6739 17.7068 26.3785 17.9605 26.0166C18.2141 25.6548 18.3768 25.2371 18.4347 24.7991C18.4927 24.361 18.4443 23.9154 18.2935 23.5H20.4568C20.3196 23.8783 20.267 24.282 20.3028 24.6828C20.3386 25.0835 20.4619 25.4715 20.664 25.8194C20.8661 26.1673 21.1421 26.4667 21.4725 26.6963C21.8029 26.9259 22.1797 27.0802 22.5762 27.1483C22.9728 27.2165 23.3794 27.1968 23.7675 27.0906C24.1556 26.9844 24.5157 26.7944 24.8223 26.5339C25.129 26.2734 25.3747 25.9488 25.5422 25.583C25.7097 25.2172 25.795 24.8191 25.7918 24.4167C25.7901 23.9431 25.6637 23.4784 25.4252 23.0692C25.8171 22.8221 26.1403 22.4799 26.3647 22.0745C26.589 21.669 26.7073 21.2134 26.7085 20.75V20.75ZM23.1243 18H15.2502L13.7285 12.5H24.6002L23.1243 18ZM15.7085 25.3334C15.5272 25.3334 15.35 25.2796 15.1992 25.1789C15.0485 25.0782 14.931 24.935 14.8616 24.7675C14.7922 24.6 14.7741 24.4157 14.8094 24.2379C14.8448 24.0601 14.9321 23.8967 15.0603 23.7685C15.1885 23.6403 15.3518 23.553 15.5297 23.5177C15.7075 23.4823 15.8918 23.5004 16.0593 23.5698C16.2268 23.6392 16.37 23.7567 16.4707 23.9074C16.5714 24.0582 16.6252 24.2354 16.6252 24.4167C16.6252 24.6598 16.5286 24.893 16.3567 25.0649C16.1848 25.2368 15.9516 25.3334 15.7085 25.3334ZM23.0418 25.3334C22.8605 25.3334 22.6833 25.2796 22.5326 25.1789C22.3818 25.0782 22.2643 24.935 22.1949 24.7675C22.1256 24.6 22.1074 24.4157 22.1428 24.2379C22.1781 24.0601 22.2654 23.8967 22.3936 23.7685C22.5218 23.6403 22.6852 23.553 22.863 23.5177C23.0408 23.4823 23.2251 23.5004 23.3926 23.5698C23.5601 23.6392 23.7033 23.7567 23.804 23.9074C23.9047 24.0582 23.9585 24.2354 23.9585 24.4167C23.9585 24.6598 23.8619 24.893 23.69 25.0649C23.5181 25.2368 23.2849 25.3334 23.0418 25.3334Z" fill="white"/>
</svg>
