<svg width="24" height="24" viewBox="0 0 24 24" fill="none" xmlns="http://www.w3.org/2000/svg">
<g clip-path="url(#clip0_576_226)">
<path d="M12 0C9.813 0 7.8 0.533 5.96 1.6C4.14572 2.64095 2.64095 4.14572 1.6 5.96C0.533 7.8 0 9.813 0 12C0 14.187 0.533 16.2 1.6 18.04C2.64095 19.8543 4.14572 21.359 5.96 22.4C7.8 23.467 9.813 24 12 24C14.187 24 16.2 23.467 18.04 22.4C19.8543 21.359 21.359 19.8543 22.4 18.04C23.467 16.2 24 14.187 24 12C24 9.813 23.467 7.8 22.4 5.96C21.359 4.14572 19.8543 2.64095 18.04 1.6C16.2 0.533 14.187 0 12 0ZM15.12 12H13.12V19.2H10.4V12H8.64V9.52H10.4V8C10.4 6.88 10.587 6.08 10.96 5.6C11.387 5.013 12.16 4.72 13.28 4.72H15.28V7.2H14.08C13.653 7.2 13.387 7.267 13.28 7.4C13.173 7.533 13.12 7.787 13.12 8.16V9.36H15.28L15.12 12Z" fill="white"/>
</g>
<defs>
<clipPath id="clip0_576_226">
<rect width="24" height="24" fill="white"/>
</clipPath>
</defs>
</svg>
