<svg width="26" height="26" viewBox="0 0 26 26" fill="none" xmlns="http://www.w3.org/2000/svg">
<path d="M12.8311 12.8455C14.0037 12.8484 15.1508 12.5031 16.127 11.8534C17.1032 11.2037 17.8646 10.2788 18.3146 9.19596C18.7647 8.11313 18.8832 6.92107 18.6551 5.77082C18.4271 4.62058 17.8627 3.56392 17.0335 2.73474C16.2043 1.90556 15.1477 1.34117 13.9974 1.1131C12.8472 0.885034 11.6551 1.00354 10.5723 1.45361C9.48946 1.90368 8.5646 2.66505 7.9149 3.64126C7.2652 4.61746 6.9199 5.76455 6.92276 6.93719C6.92922 8.50218 7.55378 10.0012 8.6604 11.1079C9.76703 12.2145 11.2661 12.839 12.8311 12.8455V12.8455ZM12.8311 15.804C8.91194 15.804 1 17.8004 1 21.7267V24.6852H24.6636V21.7195C24.6636 17.8004 16.7459 15.804 12.8311 15.804Z" stroke="white" stroke-width="2"/>
</svg>
