<svg width="22" height="22" viewBox="0 0 22 22" fill="none" xmlns="http://www.w3.org/2000/svg">
<rect width="22" height="22" rx="4" fill="#BF0413"/>
<path d="M19.7085 13.75C19.7065 13.1998 19.5394 12.6628 19.2289 12.2085C18.9184 11.7542 18.4788 11.4035 17.9668 11.2017L19.681 4.78505C19.7168 4.64839 19.7205 4.50531 19.6919 4.36697C19.6633 4.22863 19.6031 4.09878 19.516 3.98755C19.427 3.88333 19.3157 3.80041 19.1904 3.74488C19.065 3.68936 18.9288 3.66265 18.7918 3.66672H6.2335L5.931 2.51172C5.8784 2.31638 5.76267 2.14394 5.60184 2.02124C5.44101 1.89854 5.24412 1.8325 5.04183 1.83338H3.2085V3.66672H4.336L6.60933 12.155C6.66305 12.355 6.78289 12.5309 6.94934 12.6541C7.11579 12.7773 7.31905 12.8405 7.526 12.8334H16.9585C17.2016 12.8334 17.4348 12.93 17.6067 13.1019C17.7786 13.2738 17.8752 13.5069 17.8752 13.75C17.8752 13.9932 17.7786 14.2263 17.6067 14.3982C17.4348 14.5701 17.2016 14.6667 16.9585 14.6667H5.04183C4.79871 14.6667 4.56556 14.7633 4.39365 14.9352C4.22174 15.1071 4.12516 15.3403 4.12516 15.5834C4.12516 15.8265 4.22174 16.0597 4.39365 16.2316C4.56556 16.4035 4.79871 16.5 5.04183 16.5H6.1235C5.97274 16.9154 5.92429 17.361 5.98227 17.7991C6.04024 18.2371 6.20292 18.6548 6.45654 19.0166C6.71015 19.3785 7.04724 19.6739 7.43924 19.8778C7.83124 20.0818 8.26661 20.1883 8.7085 20.1883C9.15038 20.1883 9.58576 20.0818 9.97776 19.8778C10.3698 19.6739 10.7068 19.3785 10.9605 19.0166C11.2141 18.6548 11.3768 18.2371 11.4347 17.7991C11.4927 17.361 11.4443 16.9154 11.2935 16.5H13.4568C13.3196 16.8783 13.267 17.282 13.3028 17.6828C13.3386 18.0835 13.4619 18.4715 13.664 18.8194C13.8661 19.1673 14.1421 19.4667 14.4725 19.6963C14.8029 19.9259 15.1797 20.0802 15.5762 20.1483C15.9728 20.2165 16.3794 20.1968 16.7675 20.0906C17.1556 19.9844 17.5157 19.7944 17.8223 19.5339C18.129 19.2734 18.3747 18.9488 18.5422 18.583C18.7097 18.2172 18.795 17.8191 18.7918 17.4167C18.7901 16.9431 18.6637 16.4784 18.4252 16.0692C18.8171 15.8221 19.1403 15.4799 19.3647 15.0745C19.589 14.669 19.7073 14.2134 19.7085 13.75V13.75ZM16.1243 11H8.25016L6.7285 5.50005H17.6002L16.1243 11ZM8.7085 18.3334C8.5272 18.3334 8.34997 18.2796 8.19922 18.1789C8.04848 18.0782 7.93099 17.935 7.86161 17.7675C7.79223 17.6 7.77407 17.4157 7.80944 17.2379C7.84481 17.0601 7.93212 16.8967 8.06032 16.7685C8.18851 16.6403 8.35185 16.553 8.52966 16.5177C8.70748 16.4823 8.89179 16.5004 9.05929 16.5698C9.22679 16.6392 9.36995 16.7567 9.47068 16.9074C9.5714 17.0582 9.62516 17.2354 9.62516 17.4167C9.62516 17.6598 9.52859 17.893 9.35668 18.0649C9.18477 18.2368 8.95161 18.3334 8.7085 18.3334ZM16.0418 18.3334C15.8605 18.3334 15.6833 18.2796 15.5326 18.1789C15.3818 18.0782 15.2643 17.935 15.1949 17.7675C15.1256 17.6 15.1074 17.4157 15.1428 17.2379C15.1781 17.0601 15.2654 16.8967 15.3936 16.7685C15.5218 16.6403 15.6852 16.553 15.863 16.5177C16.0408 16.4823 16.2251 16.5004 16.3926 16.5698C16.5601 16.6392 16.7033 16.7567 16.804 16.9074C16.9047 17.0582 16.9585 17.2354 16.9585 17.4167C16.9585 17.6598 16.8619 17.893 16.69 18.0649C16.5181 18.2368 16.2849 18.3334 16.0418 18.3334Z" fill="white"/>
</svg>
