<svg width="22" height="22" viewBox="0 0 22 22" fill="none" xmlns="http://www.w3.org/2000/svg">
<rect width="22" height="22" rx="4" fill="#BF0413"/>
<path d="M19.7085 13.7499C19.7065 13.1997 19.5394 12.6627 19.2289 12.2084C18.9184 11.7541 18.4788 11.4034 17.9668 11.2016L19.681 4.78493C19.7168 4.64827 19.7205 4.50519 19.6919 4.36685C19.6633 4.22851 19.6031 4.09865 19.516 3.98743C19.427 3.88321 19.3157 3.80028 19.1904 3.74476C19.065 3.68923 18.9288 3.66252 18.7918 3.66659H6.2335L5.931 2.51159C5.8784 2.31626 5.76267 2.14381 5.60184 2.02112C5.44101 1.89842 5.24412 1.83237 5.04183 1.83326H3.2085V3.66659H4.336L6.60933 12.1549C6.66305 12.3549 6.78289 12.5308 6.94934 12.654C7.11579 12.7772 7.31905 12.8403 7.526 12.8333H16.9585C17.2016 12.8333 17.4348 12.9298 17.6067 13.1017C17.7786 13.2737 17.8752 13.5068 17.8752 13.7499C17.8752 13.993 17.7786 14.2262 17.6067 14.3981C17.4348 14.57 17.2016 14.6666 16.9585 14.6666H5.04183C4.79871 14.6666 4.56556 14.7632 4.39365 14.9351C4.22174 15.107 4.12516 15.3401 4.12516 15.5833C4.12516 15.8264 4.22174 16.0595 4.39365 16.2314C4.56556 16.4034 4.79871 16.4999 5.04183 16.4999H6.1235C5.97274 16.9153 5.92429 17.3609 5.98227 17.7989C6.04024 18.237 6.20292 18.6547 6.45654 19.0165C6.71015 19.3784 7.04724 19.6738 7.43924 19.8777C7.83124 20.0817 8.26661 20.1882 8.7085 20.1882C9.15038 20.1882 9.58576 20.0817 9.97776 19.8777C10.3698 19.6738 10.7068 19.3784 10.9605 19.0165C11.2141 18.6547 11.3768 18.237 11.4347 17.7989C11.4927 17.3609 11.4443 16.9153 11.2935 16.4999H13.4568C13.3196 16.8781 13.267 17.2819 13.3028 17.6826C13.3386 18.0834 13.4619 18.4714 13.664 18.8193C13.8661 19.1672 14.1421 19.4665 14.4725 19.6961C14.8029 19.9258 15.1797 20.0801 15.5762 20.1482C15.9728 20.2163 16.3794 20.1966 16.7675 20.0905C17.1556 19.9843 17.5157 19.7943 17.8223 19.5338C18.129 19.2733 18.3747 18.9487 18.5422 18.5829C18.7097 18.2171 18.795 17.8189 18.7918 17.4166C18.7901 16.943 18.6637 16.4782 18.4252 16.0691C18.8171 15.822 19.1403 15.4798 19.3647 15.0743C19.589 14.6689 19.7073 14.2133 19.7085 13.7499V13.7499ZM16.1243 10.9999H8.25016L6.7285 5.49993H17.6002L16.1243 10.9999ZM8.7085 18.3333C8.5272 18.3333 8.34997 18.2795 8.19922 18.1788C8.04848 18.0781 7.93099 17.9349 7.86161 17.7674C7.79223 17.5999 7.77407 17.4156 7.80944 17.2378C7.84481 17.0599 7.93212 16.8966 8.06032 16.7684C8.18851 16.6402 8.35185 16.5529 8.52966 16.5175C8.70748 16.4822 8.89179 16.5003 9.05929 16.5697C9.22679 16.6391 9.36995 16.7566 9.47068 16.9073C9.5714 17.0581 9.62516 17.2353 9.62516 17.4166C9.62516 17.6597 9.52859 17.8929 9.35668 18.0648C9.18477 18.2367 8.95161 18.3333 8.7085 18.3333ZM16.0418 18.3333C15.8605 18.3333 15.6833 18.2795 15.5326 18.1788C15.3818 18.0781 15.2643 17.9349 15.1949 17.7674C15.1256 17.5999 15.1074 17.4156 15.1428 17.2378C15.1781 17.0599 15.2654 16.8966 15.3936 16.7684C15.5218 16.6402 15.6852 16.5529 15.863 16.5175C16.0408 16.4822 16.2251 16.5003 16.3926 16.5697C16.5601 16.6391 16.7033 16.7566 16.804 16.9073C16.9047 17.0581 16.9585 17.2353 16.9585 17.4166C16.9585 17.6597 16.8619 17.8929 16.69 18.0648C16.5181 18.2367 16.2849 18.3333 16.0418 18.3333Z" fill="#F5F5F5"/>
</svg>
