<svg width="27" height="27" viewBox="0 0 27 27" fill="none" xmlns="http://www.w3.org/2000/svg">
<path d="M24.1875 16.875C24.185 16.1997 23.98 15.5406 23.5989 14.9831C23.2179 14.4255 22.6783 13.9951 22.05 13.7475L24.1537 5.87251C24.1977 5.7048 24.2023 5.52919 24.1672 5.35941C24.132 5.18963 24.0581 5.03027 23.9513 4.89376C23.842 4.76585 23.7054 4.66408 23.5516 4.59594C23.3978 4.5278 23.2307 4.49502 23.0625 4.50001H7.65L7.27875 3.08251C7.2142 2.84279 7.07217 2.63114 6.87479 2.48056C6.67741 2.32998 6.43576 2.24892 6.1875 2.25001H3.9375V4.50001H5.32125L8.11125 14.9175C8.17718 15.1629 8.32426 15.3788 8.52854 15.53C8.73282 15.6812 8.98227 15.7587 9.23625 15.75H20.8125C21.1109 15.75 21.397 15.8685 21.608 16.0795C21.819 16.2905 21.9375 16.5766 21.9375 16.875C21.9375 17.1734 21.819 17.4595 21.608 17.6705C21.397 17.8815 21.1109 18 20.8125 18H6.1875C5.88913 18 5.60298 18.1185 5.39201 18.3295C5.18103 18.5405 5.0625 18.8266 5.0625 19.125C5.0625 19.4234 5.18103 19.7095 5.39201 19.9205C5.60298 20.1315 5.88913 20.25 6.1875 20.25H7.515C7.32998 20.7598 7.27052 21.3066 7.34167 21.8443C7.41282 22.3819 7.61248 22.8944 7.92373 23.3385C8.23499 23.7826 8.64868 24.1452 9.12977 24.3955C9.61086 24.6458 10.1452 24.7765 10.6875 24.7765C11.2298 24.7765 11.7641 24.6458 12.2452 24.3955C12.7263 24.1452 13.14 23.7826 13.4513 23.3385C13.7625 22.8944 13.9622 22.3819 14.0333 21.8443C14.1045 21.3066 14.045 20.7598 13.86 20.25H16.515C16.3466 20.7142 16.2821 21.2097 16.326 21.7015C16.3699 22.1933 16.5213 22.6695 16.7693 23.0965C17.0173 23.5235 17.3561 23.8908 17.7615 24.1726C18.167 24.4544 18.6294 24.6438 19.1161 24.7275C19.6027 24.8111 20.1018 24.7869 20.5781 24.6566C21.0544 24.5263 21.4963 24.2931 21.8727 23.9734C22.249 23.6537 22.5506 23.2553 22.7562 22.8064C22.9618 22.3574 23.0663 21.8688 23.0625 21.375C23.0604 20.7938 22.9052 20.2234 22.6125 19.7213C23.0936 19.418 23.4902 18.998 23.7655 18.5004C24.0409 18.0028 24.186 17.4437 24.1875 16.875ZM19.7887 13.5H10.125L8.2575 6.75001H21.6L19.7887 13.5ZM10.6875 22.5C10.465 22.5 10.2475 22.434 10.0625 22.3104C9.87748 22.1868 9.73328 22.0111 9.64814 21.8055C9.56299 21.6 9.54071 21.3738 9.58412 21.1555C9.62752 20.9373 9.73467 20.7368 9.892 20.5795C10.0493 20.4222 10.2498 20.315 10.468 20.2716C10.6863 20.2282 10.9125 20.2505 11.118 20.3356C11.3236 20.4208 11.4993 20.565 11.6229 20.75C11.7465 20.935 11.8125 21.1525 11.8125 21.375C11.8125 21.6734 11.694 21.9595 11.483 22.1705C11.272 22.3815 10.9859 22.5 10.6875 22.5ZM19.6875 22.5C19.465 22.5 19.2475 22.434 19.0625 22.3104C18.8775 22.1868 18.7333 22.0111 18.6481 21.8055C18.563 21.6 18.5407 21.3738 18.5841 21.1555C18.6275 20.9373 18.7347 20.7368 18.892 20.5795C19.0493 20.4222 19.2498 20.315 19.468 20.2716C19.6863 20.2282 19.9125 20.2505 20.118 20.3356C20.3236 20.4208 20.4993 20.565 20.6229 20.75C20.7465 20.935 20.8125 21.1525 20.8125 21.375C20.8125 21.6734 20.694 21.9595 20.483 22.1705C20.272 22.3815 19.9859 22.5 19.6875 22.5Z" fill="white"/>
</svg>
