<svg width="21" height="22" viewBox="0 0 21 22" fill="none" xmlns="http://www.w3.org/2000/svg">
<path d="M19.0298 18.4455L15.9449 15.1C17.1424 13.4677 17.7223 11.3957 17.5654 9.31029C17.4085 7.22483 16.5267 5.28436 15.1014 3.88787C13.6761 2.49138 11.8155 1.74502 9.90235 1.80226C7.98917 1.8595 6.16874 2.71598 4.81541 4.1956C3.46207 5.67521 2.67869 7.6655 2.62634 9.75722C2.57399 11.8489 3.25665 13.8831 4.53395 15.4414C5.81125 16.9997 7.58611 17.9638 9.49357 18.1353C11.401 18.3068 13.2961 17.6728 14.7892 16.3637L17.8491 19.7091C17.9264 19.7943 18.0183 19.8619 18.1197 19.9081C18.221 19.9543 18.3297 19.978 18.4394 19.978C18.5492 19.978 18.6579 19.9543 18.7592 19.9081C18.8605 19.8619 18.9525 19.7943 19.0298 19.7091C19.1797 19.5396 19.2635 19.313 19.2635 19.0773C19.2635 18.8415 19.1797 18.615 19.0298 18.4455ZM10.1244 16.3637C8.97324 16.3637 7.8479 15.9904 6.89073 15.2912C5.93355 14.5919 5.18752 13.5981 4.74698 12.4353C4.30644 11.2725 4.19117 9.99295 4.41576 8.75853C4.64034 7.52411 5.19469 6.39021 6.00871 5.50024C6.82272 4.61027 7.85984 4.00419 8.9889 3.75865C10.118 3.51311 11.2883 3.63913 12.3518 4.12078C13.4154 4.60243 14.3244 5.41807 14.964 6.46457C15.6036 7.51106 15.9449 8.74141 15.9449 10C15.9449 11.6878 15.3317 13.3064 14.2402 14.4998C13.1486 15.6932 11.6681 16.3637 10.1244 16.3637Z" fill="#676767"/>
</svg>
