<svg width="24" height="24" viewBox="0 0 24 24" fill="none" xmlns="http://www.w3.org/2000/svg">
<g clip-path="url(#clip0_275_622)">
<path d="M16 12.48C15.8979 13.0013 15.7086 13.5017 15.44 13.96C15.1742 14.4122 14.8206 14.8066 14.4 15.12C13.8437 15.536 13.1741 15.7731 12.48 15.8C11.7944 15.8286 11.1148 15.6621 10.52 15.32C9.91358 14.9806 9.42517 14.4643 9.12 13.84C8.64 12.88 8.533 11.867 8.8 10.8H7.68L7.76 16.32C7.76 16.427 7.8 16.533 7.88 16.64C7.96 16.747 8.053 16.8 8.16 16.8H16.48C16.587 16.8 16.693 16.747 16.8 16.64C16.907 16.533 16.96 16.427 16.96 16.32V10.8H15.84C16 11.333 16.053 11.893 16 12.48ZM12.32 14.48C12.96 14.48 13.52 14.24 14 13.76C14.48 13.28 14.72 12.707 14.72 12.04C14.7257 11.3882 14.4825 10.7587 14.04 10.28C13.587 9.773 13.027 9.52 12.36 9.52C11.693 9.52 11.12 9.76 10.64 10.24C10.16 10.72 9.92 11.293 9.92 11.96C9.92 12.627 10.147 13.213 10.6 13.72C11.053 14.227 11.6 14.48 12.24 14.48H12.32ZM16.48 6.88H15.36C15.253 6.88 15.147 6.933 15.04 7.04C14.933 7.147 14.88 7.253 14.88 7.36V8.72C14.987 8.933 15.147 9.04 15.36 9.04H16.48C16.64 9.04 16.76 8.987 16.84 8.88C16.9141 8.78943 16.9563 8.67696 16.96 8.56V7.36C16.96 7.253 16.907 7.147 16.8 7.04C16.693 6.933 16.587 6.88 16.48 6.88ZM12 0C9.813 0 7.8 0.533 5.96 1.6C4.14572 2.64095 2.64095 4.14572 1.6 5.96C0.533 7.8 0 9.813 0 12C0 14.187 0.533 16.2 1.6 18.04C2.64095 19.8543 4.14572 21.359 5.96 22.4C7.8 23.467 9.813 24 12 24C14.187 24 16.2 23.467 18.04 22.4C19.8543 21.359 21.359 19.8543 22.4 18.04C23.467 16.2 24 14.187 24 12C24 9.813 23.467 7.8 22.4 5.96C21.359 4.14572 19.8543 2.64095 18.04 1.6C16.2 0.533 14.187 0 12 0ZM18.24 16.88L18.16 16.96V17.04C18.1622 17.1665 18.1386 17.292 18.0904 17.409C18.0422 17.5259 17.9706 17.6318 17.88 17.72C17.6949 17.9059 17.4578 18.0314 17.2 18.08H7.52C7.38996 18.0808 7.26138 18.0525 7.14371 17.9971C7.02604 17.9417 6.92227 17.8607 6.84 17.76C6.65813 17.5563 6.53386 17.3077 6.48 17.04L6.4 16.88L6.48 7.04C6.48 6.773 6.573 6.533 6.76 6.32C6.947 6.107 7.173 5.973 7.44 5.92H17.12C17.3778 5.96864 17.6148 6.09414 17.8 6.28C17.9859 6.46515 18.1114 6.7022 18.16 6.96L18.24 16.88Z" fill="white"/>
</g>
<defs>
<clipPath id="clip0_275_622">
<rect width="24" height="24" fill="white"/>
</clipPath>
</defs>
</svg>
