<svg width="24" height="24" viewBox="0 0 24 24" fill="none" xmlns="http://www.w3.org/2000/svg">
<g clip-path="url(#clip0_275_613)">
<path d="M12 0C9.813 0 7.8 0.533 5.96 1.6C4.14572 2.64095 2.64095 4.14572 1.6 5.96C0.533 7.8 0 9.813 0 12C0 14.187 0.533 16.2 1.6 18.04C2.64095 19.8543 4.14572 21.359 5.96 22.4C7.8 23.467 9.813 24 12 24C14.187 24 16.2 23.467 18.04 22.4C19.8543 21.359 21.359 19.8543 22.4 18.04C23.467 16.2 24 14.187 24 12C24 9.813 23.467 7.8 22.4 5.96C21.359 4.14572 19.8543 2.64095 18.04 1.6C16.2 0.533 14.187 0 12 0ZM18 9.28V9.68C18 11.067 17.667 12.4 17 13.68C16.3422 14.9503 15.363 16.026 14.16 16.8C12.827 17.653 11.333 18.08 9.68 18.08C8.06968 18.0921 6.48881 17.6483 5.12 16.8H5.84C7.227 16.8 8.453 16.373 9.52 15.52C8.88 15.52 8.307 15.32 7.8 14.92C7.293 14.52 6.933 14 6.72 13.36L7.28 13.52C7.653 13.52 7.92 13.467 8.08 13.36C7.39925 13.2607 6.78309 12.9025 6.36 12.36C5.91866 11.8332 5.67779 11.1673 5.68 10.48C6.107 10.747 6.56 10.88 7.04 10.88C6.133 10.347 5.68 9.52 5.68 8.4C5.68 7.867 5.813 7.36 6.08 6.88C6.88 7.84 7.8 8.587 8.84 9.12C9.89572 9.65745 11.0561 9.95779 12.24 10C12.133 9.84 12.08 9.6 12.08 9.28C12.08 8.48 12.373 7.787 12.96 7.2C13.547 6.613 14.24 6.32 15.04 6.32C15.84 6.32 16.587 6.613 17.28 7.2C17.76 7.093 18.4 6.853 19.2 6.48C18.987 7.227 18.56 7.76 17.92 8.08H18C18.747 7.92 19.28 7.76 19.6 7.6C19.067 8.293 18.533 8.853 18 9.28Z" fill="white"/>
</g>
<defs>
<clipPath id="clip0_275_613">
<rect width="24" height="24" fill="white"/>
</clipPath>
</defs>
</svg>
