<svg width="24" height="24" viewBox="0 0 24 24" fill="none" xmlns="http://www.w3.org/2000/svg">
<g clip-path="url(#clip0_275_616)">
<path d="M11.9996 0C9.81263 0 7.79963 0.533 5.95963 1.6C4.14536 2.64095 2.64059 4.14572 1.59963 5.96C0.532634 7.8 -0.000366211 9.813 -0.000366211 12C-0.000366211 14.187 0.532634 16.2 1.59963 18.04C2.64059 19.8543 4.14536 21.359 5.95963 22.4C7.79963 23.467 9.81263 24 11.9996 24C14.1866 24 16.1996 23.467 18.0396 22.4C19.8539 21.359 21.3587 19.8543 22.3996 18.04C23.4666 16.2 23.9996 14.187 23.9996 12C23.9996 9.813 23.4666 7.8 22.3996 5.96C21.3587 4.14572 19.8539 2.64095 18.0396 1.6C16.1996 0.533 14.1866 0 11.9996 0ZM15.1196 12H13.1196V19.2H10.3996V12H8.63963V9.52H10.3996V8C10.3996 6.88 10.5866 6.08 10.9596 5.6C11.3866 5.013 12.1596 4.72 13.2796 4.72H15.2796V7.2H14.0796C13.6526 7.2 13.3866 7.267 13.2796 7.4C13.1726 7.533 13.1196 7.787 13.1196 8.16V9.36H15.2796L15.1196 12Z" fill="white"/>
</g>
<defs>
<clipPath id="clip0_275_616">
<rect width="24" height="24" fill="white"/>
</clipPath>
</defs>
</svg>
