<svg width="24" height="24" viewBox="0 0 24 24" fill="none" xmlns="http://www.w3.org/2000/svg">
<g clip-path="url(#clip0_275_619)">
<path d="M11.2795 17.6C11.235 17.6962 11.1661 17.7789 11.0795 17.84C11.0093 17.8901 10.9257 17.918 10.8395 17.92C10.7595 17.92 10.7065 17.893 10.6795 17.84C10.6487 17.7639 10.635 17.682 10.6395 17.6V14.64H9.91951V17.92C9.91167 18.101 9.95315 18.2807 10.0395 18.44C10.1195 18.573 10.2395 18.64 10.3995 18.64C10.5595 18.64 10.7065 18.587 10.8395 18.48C10.9725 18.373 11.1195 18.24 11.2795 18.08V18.56H11.9995V14.64H11.2795V17.6ZM6.95951 14V13.2H9.59951V14H8.71951V18.56H7.83951V14H6.95951ZM11.9195 9.28C11.8125 9.28 11.7195 9.24 11.6395 9.16C11.6015 9.12398 11.5712 9.08056 11.5506 9.03241C11.5299 8.98426 11.5194 8.93239 11.5195 8.88V6.48C11.5195 6.427 11.5465 6.373 11.5995 6.32C11.6525 6.267 11.7465 6.24 11.8795 6.24C12.0125 6.24 12.1195 6.267 12.1995 6.32C12.2387 6.34607 12.2704 6.38194 12.2914 6.42404C12.3125 6.46614 12.3222 6.51301 12.3195 6.56V8.88C12.3195 8.987 12.2795 9.08 12.1995 9.16C12.1635 9.19804 12.1201 9.22832 12.0719 9.24895C12.0238 9.26959 11.9719 9.28016 11.9195 9.28ZM13.9195 17.6C13.9195 16.96 13.9465 16.293 13.9995 15.6C13.9995 15.493 13.9595 15.4 13.8795 15.32C13.7995 15.24 13.7195 15.2 13.6395 15.2H13.5195L13.2795 15.36V17.76L13.5195 17.92L13.6795 18C13.7865 18 13.8525 17.973 13.8795 17.92C13.9065 17.867 13.9195 17.76 13.9195 17.6ZM13.9995 14.56C14.2125 14.56 14.3865 14.64 14.5195 14.8C14.6525 14.96 14.7195 15.2 14.7195 15.52V17.76C14.7195 18.027 14.6665 18.24 14.5595 18.4C14.5155 18.4744 14.4497 18.5335 14.371 18.5692C14.2923 18.605 14.2045 18.6157 14.1195 18.6C13.9553 18.5791 13.7942 18.5388 13.6395 18.48C13.5193 18.4381 13.4193 18.3524 13.3595 18.24V18.56H12.5595V13.2H13.3595V14.96C13.4665 14.853 13.5725 14.76 13.6795 14.68C13.7701 14.6059 13.8826 14.5637 13.9995 14.56ZM17.9195 19.68C18.1865 19.467 18.3465 18.773 18.3995 17.6C18.4525 17.013 18.5065 16.453 18.5595 15.92C18.5595 15.44 18.5065 14.907 18.3995 14.32C18.2925 13.147 18.1195 12.427 17.8795 12.16C17.6395 11.893 16.6125 11.707 14.7995 11.6L12.1595 11.52L9.43951 11.6C7.62651 11.707 6.59951 11.893 6.35951 12.16C6.11951 12.427 5.94651 13.147 5.83951 14.32C5.78626 14.8517 5.75956 15.3857 5.75951 15.92C5.75951 16.453 5.78651 17.013 5.83951 17.6C5.94651 18.773 6.11951 19.48 6.35951 19.72C6.59951 19.96 7.62651 20.16 9.43951 20.32L12.1595 20.4L14.7995 20.32C16.6125 20.16 17.6525 19.973 17.9195 19.76V19.68ZM8.39951 4H7.43951L8.55951 7.6V9.84H9.51951V7.44L10.6395 4H9.67951L9.11951 6.32H9.03951L8.39951 4ZM10.7195 6.56V8.8C10.7195 9.173 10.8265 9.467 11.0395 9.68C11.2525 9.893 11.5465 10 11.9195 10C12.2925 10 12.5865 9.893 12.7995 9.68C13.0125 9.467 13.1195 9.173 13.1195 8.8V6.56C13.1195 6.24 13.0125 5.973 12.7995 5.76C12.5865 5.547 12.2925 5.44 11.9195 5.44C11.5465 5.44 11.2525 5.547 11.0395 5.76C10.8265 5.973 10.7195 6.24 10.7195 6.56ZM13.8395 5.6V9.2C13.8317 9.381 13.8731 9.56074 13.9595 9.72C14.0395 9.853 14.1725 9.92 14.3595 9.92C14.5465 9.92 14.7195 9.88 14.8795 9.8C15.0395 9.72 15.1995 9.6 15.3595 9.44V9.92H16.2395V5.6H15.3595V8.8C15.3084 8.90446 15.224 8.9889 15.1195 9.04C15.0335 9.08766 14.9377 9.11503 14.8395 9.12C14.7595 9.12 14.7065 9.107 14.6795 9.08C14.6525 9.053 14.6395 8.987 14.6395 8.88V5.52H13.8395V5.6ZM11.9995 0C14.1865 0 16.1995 0.533 18.0395 1.6C19.8538 2.64095 21.3586 4.14572 22.3995 5.96C23.4665 7.8 23.9995 9.813 23.9995 12C23.9995 14.187 23.4665 16.2 22.3995 18.04C21.3586 19.8543 19.8538 21.359 18.0395 22.4C16.1995 23.467 14.1865 24 11.9995 24C9.81251 24 7.79951 23.467 5.95951 22.4C4.14524 21.359 2.64047 19.8543 1.59951 18.04C0.532512 16.2 -0.000488281 14.187 -0.000488281 12C-0.000488281 9.813 0.532512 7.8 1.59951 5.96C2.64047 4.14572 4.14524 2.64095 5.95951 1.6C7.79951 0.533 9.81251 0 11.9995 0ZM16.5595 16.08L16.4795 15.68C16.4795 15.52 16.4525 15.4 16.3995 15.32C16.3734 15.2808 16.3376 15.2491 16.2955 15.2281C16.2534 15.207 16.2065 15.1973 16.1595 15.2C16.1125 15.1973 16.0656 15.207 16.0236 15.2281C15.9815 15.2491 15.9456 15.2808 15.9195 15.32C15.8665 15.4 15.8395 15.52 15.8395 15.68V16.08H16.5595ZM16.2395 14.56C16.5595 14.56 16.8125 14.653 16.9995 14.84C17.1865 15.027 17.2795 15.307 17.2795 15.68V16.64H15.8395V17.44C15.8395 17.6 15.8665 17.72 15.9195 17.8C15.9725 17.88 16.0665 17.92 16.1995 17.92C16.3325 17.92 16.4265 17.88 16.4795 17.8C16.5325 17.72 16.5595 17.573 16.5595 17.36V17.2H17.2795V17.44C17.2795 17.813 17.1865 18.107 16.9995 18.32C16.8125 18.533 16.5465 18.64 16.1995 18.64C15.8525 18.64 15.5865 18.533 15.3995 18.32C15.2125 18.107 15.1195 17.813 15.1195 17.44V15.68C15.1195 15.36 15.2265 15.093 15.4395 14.88C15.6525 14.667 15.9195 14.56 16.2395 14.56Z" fill="white"/>
</g>
<defs>
<clipPath id="clip0_275_619">
<rect width="24" height="24" fill="white"/>
</clipPath>
</defs>
</svg>
